<svg xmlns="http://www.w3.org/2000/svg" xmlns:xlink="http://www.w3.org/1999/xlink" viewBox="0 0 95.249 27.994" overflow="visible"><path d="M 9.672 10.695 C 5.686 9.744 4.977 9.077 4.977 7.676 C 4.977 6.351 6.223 5.46 8.078 5.46 C 9.876 5.46 11.656 6.137 13.526 7.53 C 13.581 7.572 13.652 7.589 13.721 7.578 C 13.791 7.568 13.854 7.53 13.895 7.472 L 15.841 4.728 C 15.921 4.615 15.899 4.46 15.792 4.373 C 13.567 2.589 11.064 1.722 8.136 1.722 C 3.833 1.722 0.825 4.304 0.825 8 C 0.825 11.962 3.419 13.366 7.901 14.449 C 11.714 15.327 12.359 16.063 12.359 17.379 C 12.359 18.837 11.058 19.744 8.963 19.744 C 6.636 19.744 4.737 18.958 2.614 17.122 C 2.561 17.078 2.493 17.055 2.424 17.059 C 2.354 17.064 2.29 17.097 2.245 17.15 L 0.062 19.747 C -0.029 19.855 -0.019 20.016 0.086 20.111 C 2.556 22.316 5.594 23.479 8.875 23.479 C 13.511 23.479 16.508 20.946 16.508 17.023 C 16.516 13.713 14.534 11.88 9.68 10.699 L 9.671 10.695 Z M 27 6.764 C 24.991 6.764 23.342 7.556 21.98 9.178 L 21.98 7.352 C 21.98 7.283 21.953 7.217 21.905 7.168 C 21.856 7.119 21.79 7.091 21.721 7.091 L 18.151 7.091 C 18.082 7.091 18.016 7.119 17.967 7.168 C 17.919 7.217 17.892 7.283 17.892 7.352 L 17.892 27.641 C 17.892 27.785 18.008 27.903 18.151 27.903 L 21.721 27.903 C 21.865 27.902 21.98 27.785 21.98 27.641 L 21.98 21.238 C 23.342 22.762 24.991 23.509 27 23.509 C 30.735 23.509 34.518 20.634 34.518 15.137 C 34.523 9.64 30.741 6.764 27.003 6.764 Z M 30.366 15.138 C 30.366 17.935 28.643 19.889 26.173 19.889 C 23.734 19.889 21.892 17.847 21.892 15.138 C 21.892 12.428 23.734 10.386 26.173 10.386 C 28.602 10.386 30.366 12.384 30.366 15.138 Z M 44.207 6.764 C 39.397 6.764 35.629 10.468 35.629 15.197 C 35.629 19.876 39.372 23.54 44.149 23.54 C 48.976 23.54 52.755 19.848 52.755 15.137 C 52.755 10.442 49.001 6.764 44.207 6.764 Z M 44.207 19.917 C 41.649 19.917 39.719 17.861 39.719 15.136 C 39.719 12.399 41.583 10.413 44.149 10.413 C 46.724 10.413 48.664 12.469 48.664 15.196 C 48.664 17.933 46.79 19.917 44.207 19.917 Z M 63.027 7.091 L 59.099 7.091 L 59.099 3.075 C 59.099 2.932 58.983 2.815 58.839 2.814 L 55.27 2.814 C 55.125 2.814 55.008 2.931 55.008 3.075 L 55.008 7.09 L 53.293 7.09 C 53.224 7.091 53.158 7.118 53.109 7.168 C 53.061 7.217 53.034 7.283 53.034 7.352 L 53.034 10.419 C 53.034 10.564 53.15 10.681 53.293 10.681 L 55.008 10.681 L 55.008 18.619 C 55.008 21.825 56.604 23.451 59.755 23.451 C 61.034 23.451 62.095 23.187 63.096 22.619 C 63.178 22.574 63.229 22.487 63.228 22.393 L 63.228 19.471 C 63.228 19.381 63.181 19.297 63.104 19.25 C 63.027 19.201 62.931 19.197 62.85 19.239 C 62.164 19.584 61.5 19.743 60.756 19.743 C 59.611 19.743 59.099 19.223 59.099 18.059 L 59.099 10.683 L 63.027 10.683 C 63.096 10.682 63.162 10.654 63.211 10.605 C 63.259 10.556 63.286 10.49 63.286 10.421 L 63.286 7.354 C 63.288 7.284 63.262 7.217 63.214 7.168 C 63.165 7.118 63.099 7.091 63.03 7.092 Z M 76.711 7.106 L 76.711 6.613 C 76.711 5.162 77.268 4.515 78.514 4.515 C 79.258 4.515 79.856 4.663 80.526 4.886 C 80.605 4.913 80.693 4.899 80.76 4.85 C 80.829 4.801 80.869 4.722 80.868 4.638 L 80.868 1.63 C 80.869 1.514 80.794 1.412 80.683 1.379 C 79.977 1.169 79.073 0.953 77.717 0.953 C 74.423 0.953 72.678 2.809 72.678 6.32 L 72.678 7.075 L 70.963 7.075 C 70.819 7.075 70.702 7.192 70.702 7.336 L 70.702 10.419 C 70.702 10.563 70.819 10.68 70.963 10.68 L 72.678 10.68 L 72.678 22.922 C 72.678 23.068 72.796 23.184 72.94 23.184 L 76.507 23.184 C 76.576 23.185 76.643 23.157 76.693 23.108 C 76.742 23.059 76.769 22.992 76.769 22.922 L 76.769 10.682 L 80.102 10.682 L 85.207 22.922 C 84.628 24.207 84.058 24.463 83.28 24.463 C 82.651 24.463 81.987 24.276 81.312 23.903 C 81.248 23.871 81.174 23.864 81.105 23.884 C 81.036 23.907 80.98 23.958 80.951 24.025 L 79.74 26.68 C 79.683 26.805 79.732 26.953 79.853 27.018 C 81.116 27.702 82.255 27.994 83.663 27.994 C 86.298 27.994 87.757 26.765 89.039 23.463 L 95.23 7.463 C 95.263 7.383 95.253 7.291 95.203 7.221 C 95.155 7.15 95.076 7.107 94.99 7.107 L 91.274 7.107 C 91.163 7.106 91.063 7.177 91.026 7.282 L 87.219 18.153 L 83.051 7.275 C 83.013 7.174 82.917 7.107 82.809 7.107 L 76.711 7.107 Z M 68.777 7.091 L 65.207 7.091 C 65.063 7.091 64.946 7.208 64.945 7.352 L 64.945 22.922 C 64.945 23.068 65.064 23.184 65.207 23.184 L 68.777 23.184 C 68.847 23.184 68.913 23.156 68.963 23.107 C 69.012 23.058 69.039 22.991 69.039 22.922 L 69.039 7.353 C 69.039 7.284 69.012 7.217 68.963 7.168 C 68.914 7.119 68.847 7.091 68.777 7.092 Z M 67.013 0 C 65.599 0 64.453 1.146 64.453 2.56 C 64.453 3.973 65.599 5.119 67.013 5.119 C 67.692 5.119 68.343 4.849 68.823 4.369 C 69.302 3.889 69.572 3.238 69.571 2.559 C 69.571 1.146 68.426 0 67.013 0 Z" fill="rgb(38,38,38)"></path></svg>